<?xml version="1.0" encoding="UTF-8"?>
<svg id="Layer_1" data-name="Layer 1" xmlns="http://www.w3.org/2000/svg" viewBox="0 0 310.32 73.31">
  <defs>
    <style>
      .cls-1 {
        fill: #0e0651;
      }
    </style>
  </defs>
  <g id="Group_8" data-name="Group 8">
    <g>
      <g id="Group_4" data-name="Group 4">
        <path id="Path_21" data-name="Path 21" class="cls-1" d="M305.8,8.84c-.61,0-1.22-.1-1.79-.32-1.06-.41-1.91-1.24-2.35-2.29-.45-1.1-.45-2.34,0-3.44.22-.52.54-.98.94-1.37.41-.39.89-.7,1.42-.9,1.15-.43,2.42-.43,3.57,0,.53.21,1.02.51,1.43.9.41.39.73.85.95,1.37.46,1.1.46,2.34,0,3.44-.22.52-.55.99-.95,1.38-.41.39-.9.7-1.43.91-.57.22-1.17.33-1.78.32ZM305.8,8.28c.69.01,1.37-.16,1.97-.48,1.2-.64,1.93-1.91,1.9-3.26.01-1-.38-1.97-1.1-2.68-.35-.35-.78-.62-1.24-.8-.99-.37-2.09-.37-3.08,0-.91.36-1.64,1.08-2.01,2-.19.46-.29.96-.28,1.46,0,.51.09,1.01.28,1.48.18.45.46.86.81,1.2.35.34.76.62,1.21.8.49.2,1.02.29,1.54.29ZM303.91,1.83h2.32c.31,0,.61.09.86.26.24.17.44.4.58.66.38.68.26,1.52-.29,2.07-.16.16-.35.27-.57.33l1.28,2.02h-1.08l-1.17-1.85h-1v1.85h-.95V1.83ZM306.16,4.49c.22.01.43-.08.57-.24.14-.19.22-.42.2-.66.01-.25-.07-.49-.24-.67-.15-.16-.35-.24-.57-.24h-1.28v1.81h1.32Z"/>
      </g>
      <g id="Group_7" data-name="Group 7">
        <path id="Path_22" data-name="Path 22" class="cls-1" d="M0,72.48c3.61-.24,6.44-3.2,6.51-6.82V7.05C6.42,3.44,3.6.49,0,.23h29.67c20.66,0,38.76,14.26,38.76,36.18s-18.09,36.08-38.76,36.08H0ZM15.29,1.78v69.15h14.37c19.42,0,29.98-15.5,29.98-34.52S49.09,1.78,29.65,1.78h-14.37Z"/>
        <g id="Group_5" data-name="Group 5">
          <path id="Path_23" data-name="Path 23" class="cls-1" d="M124.63,72.59c.31-.1.62-.1,1.03-.21,2.99-.66,5.23-3.15,5.58-6.2V6.64c-.38-3.44-3.16-6.13-6.61-6.41h15.4v65.64c.25,3.52,3,6.36,6.51,6.72h-21.92Z"/>
        </g>
        <g id="Group_6" data-name="Group 6">
          <path id="Path_24" data-name="Path 24" class="cls-1" d="M280.3,72.59c.31-.1.62-.1,1.03-.21,2.99-.66,5.23-3.15,5.58-6.2V6.64c-.38-3.44-3.16-6.13-6.61-6.41h15.4v65.64c.25,3.52,3,6.36,6.51,6.72h-21.92Z"/>
        </g>
        <path id="Path_25" data-name="Path 25" class="cls-1" d="M149.98,22.66h16.23v43.21c.17,3.52,2.9,6.38,6.41,6.72h-21.92c3.49-.31,6.29-3.03,6.72-6.51V29.07c-.36-2.91-2.44-5.32-5.27-6.1-.71-.19-1.43-.3-2.16-.31Z"/>
        <circle id="Ellipse_1" data-name="Ellipse 1" class="cls-1" cx="160.54" cy="12.36" r="5.02"/>
        <path id="Path_26" data-name="Path 26" class="cls-1" d="M122.57,46.12c0-1.49-.1-2.97-.31-4.45-.77-5.75-3.83-10.94-8.49-14.39-3.45-2.54-7.51-4.11-11.77-4.54-.69-.08-1.38-.12-2.07-.1h-1.45c-8.37.18-16.13,4.37-20.88,11.27-3.08,4.43-4.74,9.69-4.75,15.09v.83c0,1.49.1,2.97.31,4.45.76,5.75,3.83,10.94,8.49,14.39,3.45,2.54,7.51,4.11,11.77,4.54.69.08,1.38.12,2.07.1h1.45c8.37-.17,16.15-4.37,20.9-11.27,3.08-4.43,4.74-9.69,4.75-15.09v-.51c-.02-.1-.02-.21-.02-.32ZM114.72,56.15c-1.4,6.66-6.25,12.06-12.71,14.17-.48.11-.95.23-1.45.3-.86.12-1.72.19-2.59.21-3.95.06-7.77-1.43-10.65-4.13-4.36-4.02-6.97-9.59-7.28-15.51,0-.17-.04-.33-.06-.51-.1-1.24-.21-2.59-.21-3.83-.11-4.22.81-8.41,2.69-12.19,2.25-5.03,6.93-8.55,12.39-9.3.86-.12,1.72-.19,2.59-.21,3.95-.06,7.77,1.43,10.65,4.13,3.73,3.38,6.17,7.95,6.9,12.93.04.21.07.41.11.63s.09.54.13.83c.07.54.14,1.08.2,1.65.1,1.24.2,2.55.21,3.78v.12c0,1.18-.05,2.35-.17,3.52-.17,1.15-.42,2.28-.74,3.4Z"/>
        <path id="Path_27" data-name="Path 27" class="cls-1" d="M279.22,46.12c0-1.49-.1-2.97-.31-4.45-.77-5.75-3.83-10.94-8.49-14.39-3.45-2.54-7.51-4.11-11.77-4.54-.69-.08-1.38-.12-2.07-.1h-1.45c-8.37.18-16.14,4.37-20.88,11.27-3.08,4.43-4.74,9.69-4.75,15.09v.83c0,1.49.1,2.97.31,4.45.76,5.75,3.83,10.94,8.49,14.39,3.45,2.54,7.51,4.11,11.77,4.54.69.08,1.38.12,2.07.1h1.45c8.37-.18,16.14-4.37,20.89-11.27,3.08-4.43,4.74-9.69,4.75-15.09v-.51c-.02-.1,0-.21,0-.32ZM271.37,56.15c-1.4,6.66-6.25,12.06-12.71,14.17-.48.11-.95.23-1.45.3-.86.12-1.72.19-2.59.21-3.95.06-7.77-1.43-10.65-4.13-4.36-4.02-6.97-9.59-7.28-15.51,0-.17-.04-.33-.06-.51-.1-1.24-.21-2.59-.21-3.83-.11-4.22.81-8.41,2.69-12.19,2.25-5.03,6.93-8.55,12.39-9.3.86-.12,1.72-.19,2.59-.21,3.95-.06,7.77,1.43,10.65,4.13,3.73,3.38,6.17,7.95,6.9,12.93.04.21.07.41.11.63s.09.54.13.83c.07.54.14,1.08.2,1.65.1,1.24.2,2.55.21,3.78v.12c0,1.18-.05,2.35-.17,3.52-.17,1.15-.43,2.29-.76,3.4h0Z"/>
        <path id="Path_28" data-name="Path 28" class="cls-1" d="M221.08,65.76V6.83c.23-3.87,3.46-6.88,7.34-6.82h-16.11v34.42c-3.04-7.27-10.21-11.95-18.09-11.79-.69-.02-1.38.02-2.07.1-5.93.25-11.32,3.52-14.26,8.68-2.45,4.27-3.7,9.12-3.62,14.05v1.5c0,.36.04.71.07,1.05s.06.66.1,1.02c0,.12.03.24.04.36,1.21,11.66,10.18,21.02,21.79,22.72,1.2.2,2.41.31,3.62.31,4.78.05,9.44-1.51,13.22-4.45,1.77,2.79,4.86,4.47,8.17,4.45h6.3c-3.49-.36-6.23-3.17-6.51-6.67ZM200.92,71.86c-3.87,0-7.62-1.31-10.65-3.72-2.34-1.81-4.21-4.15-5.48-6.82-2.32-4.5-3.5-9.51-3.41-14.57,0-1.24.1-2.48.21-3.83.23-3.63,1.58-7.09,3.87-9.91h0s.17-.2.49-.51c.8-.81,1.71-1.5,2.7-2.07.18-.11.36-.21.56-.32h.03c3.76-2.01,8.14-2.55,12.27-1.5.93.19,1.85.46,2.73.79l.12.04c.48.17.94.38,1.38.63,3.3,1.6,5.7,4.59,6.56,8.15v26.44c-.01,1.03.2,2.05.62,3-3.42,2.7-7.64,4.18-12,4.21h0Z"/>
      </g>
    </g>
  </g>
</svg>