<?xml version="1.0" encoding="UTF-8"?>
<svg xmlns="http://www.w3.org/2000/svg" id="logo" width="91.212" height="32.971" viewBox="0 0 91.212 32.971">
  <g id="Group_2" data-name="Group 2" transform="translate(46.515 23.617)">
    <g id="Group_1" data-name="Group 1" transform="translate(0 0)">
      <path id="Path_1" data-name="Path 1" d="M261.78,201.108a.8.8,0,0,1,.368.305.832.832,0,0,1,.142.471.78.78,0,0,1-.312.659,1.417,1.417,0,0,1-.872.237h-1.557v-3.214H261.1a1.253,1.253,0,0,1,.794.227.753.753,0,0,1,.289.627A.707.707,0,0,1,261.78,201.108Zm-.661-1h-.946v.748h.946a.494.494,0,0,0,.328-.1.338.338,0,0,0,.117-.273.343.343,0,0,0-.117-.278A.494.494,0,0,0,261.119,200.111Zm.041,2.112a.552.552,0,0,0,.367-.112.384.384,0,0,0,.133-.31.373.373,0,0,0-.131-.305.558.558,0,0,0-.365-.108h-.992v.836Z" transform="translate(-259.548 -199.491)" fill="#c99650"></path>
      <path id="Path_2" data-name="Path 2" d="M277.614,202.224h1.819v.556h-2.443v-3.214h2.4v.551h-1.777v.767h1.695v.537h-1.695Z" transform="translate(-273.398 -199.491)" fill="#c99650"></path>
      <path id="Path_3" data-name="Path 3" d="M294.4,199.565a1.618,1.618,0,0,1,1.187.441,1.743,1.743,0,0,1,0,2.333,1.619,1.619,0,0,1-1.187.441h-1.267v-3.214Zm0,2.645a.957.957,0,0,0,.721-.285,1.163,1.163,0,0,0,0-1.506.961.961,0,0,0-.719-.285h-.634v2.076Z" transform="translate(-286.219 -199.491)" fill="#c99650"></path>
      <path id="Path_4" data-name="Path 4" d="M311.7,202.581a2.126,2.126,0,0,1-1.368-.45l.331-.473a1.586,1.586,0,0,0,1.038.349.993.993,0,0,0,.51-.112.343.343,0,0,0,.188-.305.315.315,0,0,0-.175-.285,1.533,1.533,0,0,0-.556-.147,1.97,1.97,0,0,1-.958-.31.788.788,0,0,1-.3-.663.823.823,0,0,1,.356-.689,1.5,1.5,0,0,1,.925-.266,1.975,1.975,0,0,1,1.2.386l-.312.45a1.442,1.442,0,0,0-.872-.29.939.939,0,0,0-.487.113.33.33,0,0,0-.188.287.31.31,0,0,0,.165.275,1.422,1.422,0,0,0,.542.147,2.113,2.113,0,0,1,.98.328.778.778,0,0,1,.31.654.866.866,0,0,1-.365.726A1.564,1.564,0,0,1,311.7,202.581Z" transform="translate(-299.874 -199.224)" fill="#c99650"></path>
      <path id="Path_5" data-name="Path 5" d="M335.8,202.107a1.863,1.863,0,0,1-2.454,0,1.827,1.827,0,0,1,0-2.438,1.862,1.862,0,0,1,2.454,0,1.834,1.834,0,0,1,0,2.438Zm-1.226-.117a1,1,0,0,0,.758-.305,1.241,1.241,0,0,0,0-1.593,1.1,1.1,0,0,0-1.52,0,1.242,1.242,0,0,0,0,1.593A1,1,0,0,0,334.571,201.99Z" transform="translate(-317.778 -199.207)" fill="#c99650"></path>
      <path id="Path_6" data-name="Path 6" d="M355.691,200.134h-1.685v.891h1.6v.556h-1.6v1.2h-.634v-3.214h2.319Z" transform="translate(-334.053 -199.491)" fill="#c99650"></path>
      <path id="Path_7" data-name="Path 7" d="M375.877,202.779l-.266-.625h-1.658l-.266.625H373l1.442-3.214h.693l1.437,3.214Zm-1.093-2.585-.6,1.4h1.194Z" transform="translate(-349.638 -199.491)" fill="#c99650"></path>
      <path id="Path_8" data-name="Path 8" d="M395.835,200.134H394.15v.891h1.6v.556h-1.6v1.2h-.634v-3.214h2.319Z" transform="translate(-365.931 -199.491)" fill="#c99650"></path>
      <path id="Path_9" data-name="Path 9" d="M410.971,202.779l-.877-1.079h-.556v1.079H408.9v-3.214h1.529a1.165,1.165,0,0,1,.836.3,1.049,1.049,0,0,1-.473,1.793l.95,1.125Zm-.165-1.759a.482.482,0,0,0,.147-.377.49.49,0,0,0-.147-.379.587.587,0,0,0-.413-.135h-.859v1.024h.859A.592.592,0,0,0,410.806,201.021Z" transform="translate(-378.151 -199.491)" fill="#c99650"></path>
      <path id="Path_10" data-name="Path 10" d="M426.344,202.779v-3.214h.634v3.214Z" transform="translate(-392 -199.491)" fill="#c99650"></path>
      <path id="Path_11" data-name="Path 11" d="M435.189,202.581a1.683,1.683,0,0,1-1.235-.466,1.781,1.781,0,0,1,0-2.42,1.673,1.673,0,0,1,1.223-.466,1.628,1.628,0,0,1,1.208.5l-.409.39a1.06,1.06,0,0,0-.781-.317,1.038,1.038,0,0,0-.776.305,1.213,1.213,0,0,0,0,1.593,1.037,1.037,0,0,0,.776.305,1.153,1.153,0,0,0,.836-.335l.386.423A1.678,1.678,0,0,1,435.189,202.581Z" transform="translate(-397.667 -199.224)" fill="#c99650"></path>
      <path id="Path_12" data-name="Path 12" d="M452.506,202.779l-.266-.625h-1.658l-.266.625h-.689l1.442-3.214h.693l1.437,3.214Zm-1.093-2.585-.6,1.4h1.194Z" transform="translate(-410.489 -199.491)" fill="#c99650"></path>
    </g>
  </g>
  <g id="Group_3" data-name="Group 3">
    <path id="Path_13" data-name="Path 13" d="M95.61,93.3l.286,1.063,1.063.286-1.063.286L95.61,96l-.286-1.063-1.063-.286,1.063-.286Z" transform="translate(-81.779 -91.491)" fill="#c99650" fill-rule="evenodd"></path>
    <path id="Path_14" data-name="Path 14" d="M112.578,85.334l.222-.824.222.824.824.222-.824.222-.222.824-.222-.824-.824-.222Z" transform="translate(-95.67 -84.51)" fill="#c99650" fill-rule="evenodd"></path>
    <path id="Path_15" data-name="Path 15" d="M66.193,133.513l-.2.742-.2-.742-.742-.2.742-.2.2-.742.2.742.742.2Z" transform="translate(-58.584 -122.517)" fill="#c99650" fill-rule="evenodd"></path>
    <path id="Path_16" data-name="Path 16" d="M134.786,223.925l.286,1.063,1.063.286-1.063.286-.286,1.063-.286-1.063-1.063-.286,1.063-.286Z" transform="translate(-112.889 -195.219)" fill="#c99650" fill-rule="evenodd"></path>
    <path id="Path_17" data-name="Path 17" d="M100.613,124.257l.222-.824.222.824.824.222-.824.222-.222.824-.222-.824-.824-.222Z" transform="translate(-86.169 -115.418)" fill="#c99650" fill-rule="evenodd"></path>
    <path id="Path_18" data-name="Path 18" d="M109.229,159.569l.134-.5.134.5.5.134-.5.134-.134.5-.134-.5-.5-.134Z" transform="translate(-93.269 -143.717)" fill="#c99650" fill-rule="evenodd"></path>
    <path id="Path_19" data-name="Path 19" d="M36.714,102.54l1.422-1.162s.5-.153.52-.092a3.2,3.2,0,0,1-.367,1.254c-.214.214-.275.26-.444.291s-.933,1.055-1.239,1.193a7.482,7.482,0,0,1-.2,1.3s.122,2.569-.321,2.768a7.36,7.36,0,0,1,1.285,2.141s1.177.489,1.391,1.009a7.79,7.79,0,0,1,1.652-.474,6.011,6.011,0,0,0,.765-.046,4.886,4.886,0,0,1,1.376-.26c.642,0,.75.046.78.168s-.107.306.107.352,1.162.015,1.315.26.336.138.382.367a8.619,8.619,0,0,1-.184,2.2,4.847,4.847,0,0,1,.979,1.422c.107.5.336,1.59.444,1.958a2.74,2.74,0,0,1,.087,1.407c-.148.183-.515.321-.561.489a4.018,4.018,0,0,0-.138,1.223,6.43,6.43,0,0,1,.7,1.59c.02.474-.066.627,0,.734s.265.168.265.428a2.371,2.371,0,0,0,.2,1.086,2.383,2.383,0,0,1,.8,1.881s.031.031.229,0a12.038,12.038,0,0,1,1.484-.153,4.2,4.2,0,0,0,2.141-1.8s.229-1.269.245-1.346a2.977,2.977,0,0,1,.719-.413c.168-.077-.046-1.453-.138-1.637s.079-.183.2-.229,1.7-1.025,1.788-1.392a1.426,1.426,0,0,1,.183.551c.031.306.229,1.376.291,1.728s.474.581.306.826a13.411,13.411,0,0,1-2.294,2.126s.321,1.572-.015,1.757-.933.491-.933.659.138.9-.107,1.223a19.265,19.265,0,0,1-2.554,2.432c-.413.183-1.575-.153-1.652,0s-.275.551-.6.4a2.9,2.9,0,0,1-.688-.581c-.107-.092-.061-.352-.03-.489a1.209,1.209,0,0,0-.046-.8c-.153-.214-.933-.964-.948-1.606a6.28,6.28,0,0,0-.489-2.707c-.428-.642-.642-.979-.551-1.544s.138-1.01.4-1.223.52-.336.444-.673a2.827,2.827,0,0,0-.26-.933c-.153-.2-.184,0-.153-.2a1.342,1.342,0,0,0,.03-.887,3.794,3.794,0,0,0-1.346-2.263s-.168.015-.076-.275a6.764,6.764,0,0,0,.321-1.453c0-.382.076-.535.03-.566a1.511,1.511,0,0,1-.275-.214c-.061-.077-1.1.107-1.3-.168s-.229-.581-.321-.6-1.545-.031-1.743.2-.8.183-1.04.183a14.471,14.471,0,0,1-1.9.5c-.245-.092-.734-1.009-1.529-1.009,0,0-.168-.046-.26-.382a9.9,9.9,0,0,0-1.392-2.218c-.336-.291-.275-.367-.2-.474a3.211,3.211,0,0,0,.413-1.774,4.318,4.318,0,0,1,.076-1.591c.107-.26,0-.872.122-1.162a1.725,1.725,0,0,1,.627-.657c.245-.184.535-.765.933-.933a.829.829,0,0,0,.581-.642C36.469,103.411,36.454,102.585,36.714,102.54Z" transform="translate(-33.641 -97.82)" fill="#c99650"></path>
    <path id="Path_20" data-name="Path 20" d="M135.924,151.673a1.738,1.738,0,0,0-.482,1.185c.1.557.456,1.429.5,1.773s.065.64.065.64.407-.039.617-.61a2.774,2.774,0,0,1,.925-1.451c.426-.234.953-.237,1.2-1.208a8.967,8.967,0,0,1,.566-1.751,2.793,2.793,0,0,0,.44-1.316c-.047-.426.03-.542-.07-.548s-.363-.2-.58.027-.2.356-.489.431-.507.033-.556.158-.159.691-.588.853-.617.028-.835.61A3.237,3.237,0,0,1,135.924,151.673Z" transform="translate(-114.472 -135.171)" fill="#c99650"></path>
  </g>
  <g id="Group_8" data-name="Group 8" transform="translate(16.095 3.159)">
    <g id="Group_4" data-name="Group 4" transform="translate(72.94 0.041)">
      <path id="Path_21" data-name="Path 21" d="M467.132,102.148a1.166,1.166,0,0,1-.433-.078,1.013,1.013,0,0,1-.57-.554,1.1,1.1,0,0,1,0-.832,1,1,0,0,1,.227-.332,1.036,1.036,0,0,1,.343-.219,1.235,1.235,0,0,1,.865,0,1.064,1.064,0,0,1,.347.219,1,1,0,0,1,.231.332,1.085,1.085,0,0,1,0,.832,1.011,1.011,0,0,1-.231.334,1.05,1.05,0,0,1-.347.22A1.168,1.168,0,0,1,467.132,102.148Zm0-.137a.969.969,0,0,0,.477-.117.872.872,0,0,0,.459-.79.892.892,0,0,0-.266-.648.881.881,0,0,0-.3-.194,1.057,1.057,0,0,0-.746,0,.878.878,0,0,0-.487.483.913.913,0,0,0-.068.354.932.932,0,0,0,.068.358.866.866,0,0,0,.195.291.915.915,0,0,0,.294.194A.957.957,0,0,0,467.132,102.011Zm-.459-1.559h.561a.348.348,0,0,1,.208.064.477.477,0,0,1,.141.16.417.417,0,0,1-.07.5.322.322,0,0,1-.137.081l.311.488h-.262l-.282-.448H466.9v.448h-.23Zm.546.643a.168.168,0,0,0,.137-.059.242.242,0,0,0,.049-.16.221.221,0,0,0-.057-.162.186.186,0,0,0-.138-.058H466.9v.439Z" transform="translate(-466.047 -100.054)" fill="#fefefe"></path>
    </g>
    <g id="Group_7" data-name="Group 7">
      <path id="Path_22" data-name="Path 22" d="M111.808,117.588a1.686,1.686,0,0,0,1.576-1.651V101.748a1.7,1.7,0,0,0-1.576-1.651h7.182c5,0,9.383,3.453,9.383,8.758s-4.379,8.733-9.383,8.733Zm3.7-17.115v16.739h3.478c4.7,0,7.256-3.753,7.256-8.357s-2.552-8.382-7.256-8.382Z" transform="translate(-111.808 -100.047)" fill="#fefefe"></path>
      <g id="Group_5" data-name="Group 5" transform="translate(30.169 0.05)">
        <path id="Path_23" data-name="Path 23" d="M258.327,117.613c.075-.025.15-.025.25-.05a1.738,1.738,0,0,0,1.351-1.5V101.648a1.75,1.75,0,0,0-1.6-1.551h3.729v15.889a1.762,1.762,0,0,0,1.577,1.627Z" transform="translate(-258.327 -100.097)" fill="#fefefe"></path>
      </g>
      <g id="Group_6" data-name="Group 6" transform="translate(67.852 0.05)">
        <path id="Path_24" data-name="Path 24" d="M441.339,117.613c.075-.025.15-.025.25-.05a1.739,1.739,0,0,0,1.351-1.5V101.648a1.751,1.751,0,0,0-1.6-1.551h3.729v15.889a1.762,1.762,0,0,0,1.577,1.627Z" transform="translate(-441.339 -100.097)" fill="#fefefe"></path>
      </g>
      <path id="Path_25" data-name="Path 25" d="M288.126,126.465h3.929v10.46a1.717,1.717,0,0,0,1.551,1.626H288.3a1.8,1.8,0,0,0,1.626-1.576v-8.958a1.755,1.755,0,0,0-1.276-1.476A2.208,2.208,0,0,0,288.126,126.465Z" transform="translate(-251.821 -120.985)" fill="#fefefe"></path>
      <circle id="Ellipse_1" data-name="Ellipse 1" cx="1.215" cy="1.215" r="1.215" transform="translate(37.646 1.772)" fill="#fefefe"></circle>
      <path id="Path_26" data-name="Path 26" d="M209.5,132.147a7.777,7.777,0,0,0-.075-1.076,5.184,5.184,0,0,0-2.055-3.483,5.8,5.8,0,0,0-2.849-1.1,3.514,3.514,0,0,0-.5-.025l-.1,0-.077,0h-.175a6.3,6.3,0,0,0-5.054,2.727,6.432,6.432,0,0,0-1.151,3.653c0,.041,0,.082,0,.123,0,.026,0,.051,0,.077a7.752,7.752,0,0,0,.075,1.076,5.182,5.182,0,0,0,2.055,3.483,5.794,5.794,0,0,0,2.849,1.1,3.54,3.54,0,0,0,.5.025l.1,0,.077,0h.175A6.3,6.3,0,0,0,208.354,136a6.431,6.431,0,0,0,1.151-3.653c0-.041,0-.082,0-.123C209.5,132.2,209.5,132.173,209.5,132.147Zm-1.9,2.427a4.608,4.608,0,0,1-3.077,3.431c-.115.026-.229.055-.351.072a5.251,5.251,0,0,1-.626.05,3.687,3.687,0,0,1-2.577-1,5.5,5.5,0,0,1-1.762-3.755c0-.041-.01-.081-.015-.123-.025-.3-.05-.626-.05-.926a6.272,6.272,0,0,1,.65-2.952,3.866,3.866,0,0,1,3-2.252,5.252,5.252,0,0,1,.626-.05,3.687,3.687,0,0,1,2.577,1,5.246,5.246,0,0,1,1.67,3.131c.009.05.018.1.026.153s.022.131.031.2c.018.13.035.262.049.4.025.3.049.618.05.916v.029a8.185,8.185,0,0,1-.042.853A6.141,6.141,0,0,1,207.6,134.574Z" transform="translate(-179.831 -120.987)" fill="#fefefe"></path>
      <path id="Path_27" data-name="Path 27" d="M393.649,132.147a7.775,7.775,0,0,0-.075-1.076,5.185,5.185,0,0,0-2.055-3.483,5.8,5.8,0,0,0-2.849-1.1,3.513,3.513,0,0,0-.5-.025l-.1,0-.077,0h-.175a6.305,6.305,0,0,0-5.055,2.727,6.434,6.434,0,0,0-1.151,3.653c0,.041,0,.082,0,.123,0,.026,0,.051,0,.077a7.747,7.747,0,0,0,.075,1.076,5.183,5.183,0,0,0,2.055,3.483,5.794,5.794,0,0,0,2.849,1.1,3.539,3.539,0,0,0,.5.025l.1,0,.077,0h.175A6.3,6.3,0,0,0,392.5,136a6.431,6.431,0,0,0,1.151-3.653c0-.041,0-.082,0-.123C393.647,132.2,393.649,132.173,393.649,132.147Zm-1.9,2.427a4.608,4.608,0,0,1-3.077,3.431c-.115.026-.229.055-.351.072a5.252,5.252,0,0,1-.626.05,3.687,3.687,0,0,1-2.577-1,5.5,5.5,0,0,1-1.762-3.755c0-.041-.01-.081-.014-.123-.025-.3-.05-.626-.05-.926a6.272,6.272,0,0,1,.651-2.952,3.866,3.866,0,0,1,3-2.252,5.246,5.246,0,0,1,.626-.05,3.687,3.687,0,0,1,2.577,1,5.246,5.246,0,0,1,1.671,3.131c.009.05.018.1.026.153s.022.131.031.2c.018.13.035.262.048.4.025.3.049.618.05.916v.029a8.2,8.2,0,0,1-.042.853A6.138,6.138,0,0,1,391.747,134.574Z" transform="translate(-326.059 -120.987)" fill="#fefefe"></path>
      <path id="Path_28" data-name="Path 28" d="M327.995,115.767V101.5a1.756,1.756,0,0,1,1.777-1.652h-3.9v8.333a4.643,4.643,0,0,0-4.379-2.853,3.343,3.343,0,0,0-.5.025,4.181,4.181,0,0,0-3.453,2.1,6.626,6.626,0,0,0-.876,3.4c0,.125,0,.243,0,.358v.006c0,.087.009.171.017.255s.015.16.025.248c0,.029.007.057.01.086a6.208,6.208,0,0,0,5.274,5.5,5.383,5.383,0,0,0,.876.075,5.129,5.129,0,0,0,3.2-1.076,2.318,2.318,0,0,0,1.978,1.076h1.526A1.762,1.762,0,0,1,327.995,115.767Zm-4.88,1.476a4.149,4.149,0,0,1-2.577-.9,4.561,4.561,0,0,1-1.326-1.651,7.424,7.424,0,0,1-.826-3.528c0-.3.025-.6.05-.926a4.227,4.227,0,0,1,.936-2.4l0,0s.04-.048.118-.124a3.08,3.08,0,0,1,.653-.5c.043-.026.088-.052.135-.078l.007,0a4.147,4.147,0,0,1,2.971-.364,4.262,4.262,0,0,1,.662.192l.029.009a2.226,2.226,0,0,1,.334.153,2.967,2.967,0,0,1,1.588,1.974v6.4a1.71,1.71,0,0,0,.15.725A4.724,4.724,0,0,1,323.115,117.244Z" transform="translate(-274.479 -99.853)" fill="#fefefe"></path>
    </g>
  </g>
</svg>
