<?xml version="1.0" encoding="UTF-8"?>
<svg id="Layer_2" data-name="Layer 2" xmlns="http://www.w3.org/2000/svg" viewBox="0 0 367.03 111.29">
  <defs>
    <style>
      .cls-1 {
        fill: #001f8c;
      }
    </style>
  </defs>
  <g id="Layer_1-2" data-name="Layer 1">
    <g>
      <g>
        <path class="cls-1" d="M13.49.9v71.95H0V.9h13.49Z"/>
        <path class="cls-1" d="M38.67,22.03v11.84h1.8c0-5.52,3.96-9.06,6.66-10.53,2.7-1.47,5.76-2.2,9.17-2.2,2.46,0,4.78.4,6.97,1.21,2.19.81,4.09,2.07,5.71,3.78,1.62,1.71,2.91,3.88,3.87,6.52.96,2.64,1.44,5.76,1.44,9.35v30.85h-12.59v-27.25c0-4.2-.91-7.46-2.74-9.8-1.83-2.34-4.24-3.51-7.24-3.51-1.74,0-3.4.42-4.99,1.26-1.59.84-2.98,1.98-4.18,3.42-1.2,1.44-2.14,3.13-2.83,5.08-.69,1.95-1.03,4.03-1.03,6.25v24.55h-12.59V22.03h12.59Z"/>
        <path class="cls-1" d="M79.86,21.85h17.4v-1.8c-1.38,0-6.83.46-8.27-1.08-.74-.79-1.21-1.95-1.21-3.69v-5.4l10.79-4.5h1.8v16.46h14.66v11.15h-14.66v23.47c0,3.48,1.26,5.22,3.78,5.22,1.2,0,2.26-.33,3.19-.99.93-.66,1.81-1.47,2.65-2.43l7.28,7.82c-1.62,2.1-3.72,3.9-6.3,5.4-2.58,1.5-5.52,2.25-8.81,2.25-1.98,0-3.85-.32-5.62-.94-1.77-.63-3.3-1.62-4.59-2.97-1.29-1.35-2.31-3.06-3.06-5.13-.75-2.07-1.12-4.51-1.12-7.33v-24.37h-7.91v-11.15Z"/>
        <path class="cls-1" d="M171.69,49.55h-36.69c.24,1.74.76,3.34,1.57,4.81.81,1.47,1.8,2.74,2.97,3.82,1.17,1.08,2.49,1.93,3.96,2.56,1.47.63,3.01.94,4.63.94,2.28,0,4.42-.61,6.43-1.84,2.01-1.23,3.61-2.83,4.81-4.81l11.51,5.4c-2.28,3.96-5.43,7.17-9.44,9.62-4.02,2.46-8.45,3.69-13.31,3.69-3.6,0-6.99-.69-10.16-2.07-3.18-1.38-5.95-3.27-8.32-5.67-2.37-2.4-4.26-5.19-5.67-8.36-1.41-3.18-2.11-6.59-2.11-10.25s.63-7,1.89-10.21c1.26-3.21,3.01-5.99,5.26-8.36,2.25-2.37,4.9-4.24,7.96-5.62,3.06-1.38,6.35-2.07,9.89-2.07s6.82.69,9.85,2.07c3.03,1.38,5.65,3.25,7.87,5.62,2.22,2.37,3.96,5.16,5.22,8.36,1.26,3.21,1.89,6.61,1.89,10.21v2.16ZM158.19,40.11c-1.14-2.1-2.61-3.78-4.41-5.04-1.8-1.26-3.96-1.89-6.48-1.89s-4.71.63-6.57,1.89c-1.86,1.26-3.3,2.94-4.32,5.04h21.76Z"/>
        <path class="cls-1" d="M223.85,25.5c-.54-.46-1.09-.9-1.67-1.31-2.91-2.04-6.31-3.06-10.21-3.06-6.42,0-14.05,6.13-14.21,14.16h-1.71v-13.26h-12.59v50.81h12.59v-24.55c0-2.22.3-4.3.9-6.25.6-1.95,1.42-3.64,2.47-5.08,1.05-1.44,2.31-2.58,3.78-3.42,1.47-.84,3.1-1.26,4.9-1.26,2.22,0,4.23.62,6.03,1.85.55.37,1.42,1.14,1.91,1.58,1.5-3.73,4.47-8.04,7.81-10.21Z"/>
        <path class="cls-1" d="M254.66,55.63c-1.15,1.71-2.63,3.12-4.43,4.22-2.01,1.23-4.15,1.85-6.43,1.85-1.8,0-3.49-.38-5.08-1.12-1.59-.75-3-1.77-4.23-3.06-1.23-1.29-2.2-2.8-2.92-4.54-.72-1.74-1.08-3.6-1.08-5.58s.36-3.82,1.08-5.53c.72-1.71,1.69-3.2,2.92-4.49,1.23-1.29,2.64-2.31,4.23-3.06,1.59-.75,3.28-1.12,5.08-1.12,2.28,0,4.42.62,6.43,1.84,1.62.99,2.98,2.24,4.07,3.72,2.97-2.97,5.93-5.93,8.9-8.9-1.74-1.92-3.77-3.61-6.09-5.03-4.02-2.46-8.45-3.69-13.31-3.69-3.6,0-6.98.69-10.16,2.07-2.75,1.19-5.2,2.76-7.34,4.69-.33.3-.66.61-.98.93-2.37,2.37-4.26,5.16-5.66,8.36-.21.49-.41.98-.59,1.47-1.02,2.77-1.52,5.68-1.52,8.73,0,3.66.7,7.08,2.11,10.26,1.4,3.18,3.3,5.97,5.66,8.36,2.37,2.4,5.14,4.29,8.32,5.67,3.18,1.38,6.56,2.07,10.16,2.07,4.86,0,9.29-1.23,13.31-3.69,2.5-1.53,4.66-3.35,6.49-5.47l-8.77-8.77c-.06-.06-.12-.12-.17-.19Z"/>
        <path class="cls-1" d="M267.38,47.4c0-3.6.7-7,2.11-10.21,1.41-3.21,3.3-5.99,5.67-8.36,2.37-2.37,5.14-4.24,8.32-5.62,3.18-1.38,6.57-2.07,10.16-2.07s6.98.69,10.16,2.07c3.18,1.38,5.95,3.25,8.32,5.62,2.37,2.37,4.26,5.16,5.67,8.36,1.41,3.21,2.11,6.61,2.11,10.21s-.71,7.08-2.11,10.25c-1.41,3.18-3.3,5.97-5.67,8.36-2.37,2.4-5.14,4.29-8.32,5.67-3.18,1.38-6.57,2.07-10.16,2.07s-6.99-.69-10.16-2.07c-3.18-1.38-5.95-3.27-8.32-5.67-2.37-2.4-4.26-5.19-5.67-8.36-1.41-3.18-2.11-6.59-2.11-10.25ZM280.33,47.4c0,1.98.36,3.84,1.08,5.58.72,1.74,1.69,3.25,2.92,4.54,1.23,1.29,2.64,2.31,4.23,3.06,1.59.75,3.28,1.12,5.08,1.12s3.49-.37,5.08-1.12c1.59-.75,3-1.77,4.23-3.06,1.23-1.29,2.2-2.8,2.92-4.54.72-1.74,1.08-3.6,1.08-5.58s-.36-3.82-1.08-5.53c-.72-1.71-1.69-3.21-2.92-4.5-1.23-1.29-2.64-2.31-4.23-3.06-1.59-.75-3.28-1.12-5.08-1.12s-3.49.38-5.08,1.12c-1.59.75-3,1.77-4.23,3.06-1.23,1.29-2.2,2.79-2.92,4.5-.72,1.71-1.08,3.55-1.08,5.53Z"/>
        <path class="cls-1" d="M328,7.46c0-2.1.72-3.87,2.16-5.31,1.44-1.44,3.21-2.16,5.31-2.16s3.87.72,5.31,2.16c1.44,1.44,2.16,3.21,2.16,5.31s-.72,3.87-2.16,5.31c-1.44,1.44-3.21,2.16-5.31,2.16s-3.87-.72-5.31-2.16c-1.44-1.44-2.16-3.21-2.16-5.31ZM341.76,22.03v50.81h-12.59V22.03h12.59Z"/>
        <path class="cls-1" d="M367.03.9v71.95h-12.59V.9h12.59Z"/>
      </g>
      <g>
        <path class="cls-1" d="M217.91,108.75l2.76-2.81c.84,1.06,2.39,1.85,3.77,1.85,1.28,0,2.41-.49,2.41-1.9,0-1.33-1.33-1.75-3.62-2.49-2.22-.71-4.46-1.85-4.46-5,0-3.87,3.5-5.47,6.75-5.47,1.97,0,4.18.74,5.71,2.14l-2.68,2.83c-.71-.91-2.02-1.5-3.1-1.5s-2.44.37-2.44,1.75c0,1.16,1.03,1.55,2.68,2.04,2.39.71,5.42,1.77,5.42,5.24,0,4.01-3.23,5.81-6.67,5.81-2.49,0-5-.91-6.52-2.51Z"/>
        <path class="cls-1" d="M235.37,110.82v-17.43h4.23v17.43h-4.23Z"/>
        <path class="cls-1" d="M244.68,110.82v-17.43h4.8l6.99,11.37h.07l-.1-11.37h4.09v17.43h-4.78l-7.02-11.4h-.07l.1,11.4h-4.09Z"/>
        <path class="cls-1" d="M264.79,102.08c0-5.59,4.14-9.16,9.45-9.16,2.44,0,5.07.89,6.52,2.56l-2.86,2.86c-.79-1.08-2.19-1.6-3.52-1.6-2.93,0-5.02,2.27-5.02,5.34s2.04,5.34,4.95,5.34c1.65,0,2.95-.74,3.69-1.77l2.93,2.76c-1.53,1.77-3.84,2.88-6.77,2.88-5.37,0-9.38-3.74-9.38-9.21Z"/>
        <path class="cls-1" d="M284.22,110.82v-17.43h11.72v3.57h-7.66v3.27h7.24v3.37h-7.24v3.62h8.1v3.59h-12.16Z"/>
        <path class="cls-1" d="M305.82,110.82v-12.8l-3.25,2.51-2.14-2.93,5.74-4.21h3.79v17.43h-4.14Z"/>
        <path class="cls-1" d="M319.9,110.82l4.33-6.01.05-.07c-.34.12-.84.2-1.23.2-3.05,0-5.74-2.29-5.74-5.69,0-3.96,3.1-6.33,6.87-6.33s6.87,2.41,6.87,6.23c0,2.07-.79,3.67-1.95,5.39l-4.21,6.28h-5ZM326.92,99.1c0-1.5-1.06-2.78-2.71-2.78s-2.76,1.16-2.76,2.81,1.08,2.73,2.71,2.73,2.76-1.13,2.76-2.76Z"/>
        <path class="cls-1" d="M336.35,110.82l7.07-13.89h-8.25v-3.55h12.65v3.3l-6.67,14.13h-4.8Z"/>
        <path class="cls-1" d="M359.82,110.82v-3.4h-8.2v-3.47l7.09-10.56h4.95v10.68h2.41v3.35h-2.39v3.4h-3.87ZM355.63,104.08h4.21v-6.45h-.07l-4.14,6.45Z"/>
      </g>
    </g>
  </g>
</svg>